<svg width="30" height="34" viewBox="0 0 30 34" fill="none" xmlns="http://www.w3.org/2000/svg">
<path d="M14.5 21.8193C16.9853 21.8193 19 19.8046 19 17.3193C19 14.8341 16.9853 12.8193 14.5 12.8193C12.0147 12.8193 10 14.8341 10 17.3193C10 19.8046 12.0147 21.8193 14.5 21.8193Z" fill="#777777" fill-opacity="0.66"/>
<path d="M10.15 2.81934L7.4965 5.70822H2.9C1.305 5.70822 0 7.00822 0 8.59711V25.9304C0 27.5193 1.305 28.8193 2.9 28.8193H26.1C27.695 28.8193 29 27.5193 29 25.9304V8.59711C29 7.00822 27.695 5.70822 26.1 5.70822H21.5035L18.85 2.81934H10.15ZM14.5 24.486C10.498 24.486 7.25 21.2504 7.25 17.2638C7.25 13.2771 10.498 10.0416 14.5 10.0416C18.502 10.0416 21.75 13.2771 21.75 17.2638C21.75 21.2504 18.502 24.486 14.5 24.486Z" fill="#777777" fill-opacity="0.66"/>
<rect x="1.50619" y="2.58926" width="2" height="39.572" transform="rotate(-40.3184 1.50619 2.58926)" fill="#9E9E9E" stroke="#EAEAEA"/>
</svg>
